<?xml version="1.0" encoding="utf-8" standalone="no"?>
<!DOCTYPE svg PUBLIC "-//W3C//DTD SVG 1.1//EN"
  "http://www.w3.org/Graphics/SVG/1.1/DTD/svg11.dtd">
<svg height="288pt" version="1.1" viewBox="0 0 432 288" width="432pt" xmlns="http://www.w3.org/2000/svg" xmlns:xlink="http://www.w3.org/1999/xlink">
 <metadata>
  <rdf:RDF xmlns:cc="http://creativecommons.org/ns#" xmlns:dc="http://purl.org/dc/elements/1.1/" xmlns:rdf="http://www.w3.org/1999/02/22-rdf-syntax-ns#">
   <cc:Work>
    <dc:type rdf:resource="http://purl.org/dc/dcmitype/StillImage"/>
    <dc:date>2023-03-17T22:17:18.511803</dc:date>
    <dc:format>image/svg+xml</dc:format>
    <dc:creator>
     <cc:Agent>
      <dc:title>Matplotlib v3.4.3, https://matplotlib.org/</dc:title>
     </cc:Agent>
    </dc:creator>
   </cc:Work>
  </rdf:RDF>
 </metadata>
 <defs>
  <style type="text/css">*{stroke-linecap:butt;stroke-linejoin:round;}</style>
 </defs>
 <g id="figure_1">
  <g id="patch_1">
   <path d="M 0 288 
L 432 288 
L 432 0 
L 0 0 
z
" style="fill:none;"/>
  </g>
  <g id="axes_1">
   <g id="patch_2">
    <path d="M 38.18 246.88 
L 413.25 246.88 
L 413.25 25.92 
L 38.18 25.92 
z
" style="fill:#ffffff;"/>
   </g>
   <g id="matplotlib.axis_1">
    <g id="xtick_1">
     <g id="line2d_1">
      <path clip-path="url(#pa6da97c117)" d="M 38.18 246.88 
L 38.18 25.92 
" style="fill:none;stroke:#b0b0b0;stroke-linecap:square;stroke-width:0.8;"/>
     </g>
     <g id="line2d_2">
      <defs>
       <path d="M 0 0 
L 0 3.5 
" id="md3d7c7a058" style="stroke:#000000;stroke-width:0.8;"/>
      </defs>
      <g>
       <use style="stroke:#000000;stroke-width:0.8;" x="38.18" xlink:href="#md3d7c7a058" y="246.88"/>
      </g>
     </g>
     <g id="text_1">
      <!-- 0.0 -->
      <g transform="translate(30.228438 261.478437)scale(0.1 -0.1)">
       <defs>
        <path d="M 2034 4250 
Q 1547 4250 1301 3770 
Q 1056 3291 1056 2328 
Q 1056 1369 1301 889 
Q 1547 409 2034 409 
Q 2525 409 2770 889 
Q 3016 1369 3016 2328 
Q 3016 3291 2770 3770 
Q 2525 4250 2034 4250 
z
M 2034 4750 
Q 2819 4750 3233 4129 
Q 3647 3509 3647 2328 
Q 3647 1150 3233 529 
Q 2819 -91 2034 -91 
Q 1250 -91 836 529 
Q 422 1150 422 2328 
Q 422 3509 836 4129 
Q 1250 4750 2034 4750 
z
" id="DejaVuSans-30" transform="scale(0.015625)"/>
        <path d="M 684 794 
L 1344 794 
L 1344 0 
L 684 0 
L 684 794 
z
" id="DejaVuSans-2e" transform="scale(0.015625)"/>
       </defs>
       <use xlink:href="#DejaVuSans-30"/>
       <use x="63.623047" xlink:href="#DejaVuSans-2e"/>
       <use x="95.410156" xlink:href="#DejaVuSans-30"/>
      </g>
     </g>
    </g>
    <g id="xtick_2">
     <g id="line2d_3">
      <path clip-path="url(#pa6da97c117)" d="M 100.691667 246.88 
L 100.691667 25.92 
" style="fill:none;stroke:#b0b0b0;stroke-linecap:square;stroke-width:0.8;"/>
     </g>
     <g id="line2d_4">
      <g>
       <use style="stroke:#000000;stroke-width:0.8;" x="100.691667" xlink:href="#md3d7c7a058" y="246.88"/>
      </g>
     </g>
     <g id="text_2">
      <!-- 0.5 -->
      <g transform="translate(92.740104 261.478437)scale(0.1 -0.1)">
       <defs>
        <path d="M 691 4666 
L 3169 4666 
L 3169 4134 
L 1269 4134 
L 1269 2991 
Q 1406 3038 1543 3061 
Q 1681 3084 1819 3084 
Q 2600 3084 3056 2656 
Q 3513 2228 3513 1497 
Q 3513 744 3044 326 
Q 2575 -91 1722 -91 
Q 1428 -91 1123 -41 
Q 819 9 494 109 
L 494 744 
Q 775 591 1075 516 
Q 1375 441 1709 441 
Q 2250 441 2565 725 
Q 2881 1009 2881 1497 
Q 2881 1984 2565 2268 
Q 2250 2553 1709 2553 
Q 1456 2553 1204 2497 
Q 953 2441 691 2322 
L 691 4666 
z
" id="DejaVuSans-35" transform="scale(0.015625)"/>
       </defs>
       <use xlink:href="#DejaVuSans-30"/>
       <use x="63.623047" xlink:href="#DejaVuSans-2e"/>
       <use x="95.410156" xlink:href="#DejaVuSans-35"/>
      </g>
     </g>
    </g>
    <g id="xtick_3">
     <g id="line2d_5">
      <path clip-path="url(#pa6da97c117)" d="M 163.203333 246.88 
L 163.203333 25.92 
" style="fill:none;stroke:#b0b0b0;stroke-linecap:square;stroke-width:0.8;"/>
     </g>
     <g id="line2d_6">
      <g>
       <use style="stroke:#000000;stroke-width:0.8;" x="163.203333" xlink:href="#md3d7c7a058" y="246.88"/>
      </g>
     </g>
     <g id="text_3">
      <!-- 1.0 -->
      <g transform="translate(155.251771 261.478437)scale(0.1 -0.1)">
       <defs>
        <path d="M 794 531 
L 1825 531 
L 1825 4091 
L 703 3866 
L 703 4441 
L 1819 4666 
L 2450 4666 
L 2450 531 
L 3481 531 
L 3481 0 
L 794 0 
L 794 531 
z
" id="DejaVuSans-31" transform="scale(0.015625)"/>
       </defs>
       <use xlink:href="#DejaVuSans-31"/>
       <use x="63.623047" xlink:href="#DejaVuSans-2e"/>
       <use x="95.410156" xlink:href="#DejaVuSans-30"/>
      </g>
     </g>
    </g>
    <g id="xtick_4">
     <g id="line2d_7">
      <path clip-path="url(#pa6da97c117)" d="M 225.715 246.88 
L 225.715 25.92 
" style="fill:none;stroke:#b0b0b0;stroke-linecap:square;stroke-width:0.8;"/>
     </g>
     <g id="line2d_8">
      <g>
       <use style="stroke:#000000;stroke-width:0.8;" x="225.715" xlink:href="#md3d7c7a058" y="246.88"/>
      </g>
     </g>
     <g id="text_4">
      <!-- 1.5 -->
      <g transform="translate(217.763438 261.478437)scale(0.1 -0.1)">
       <use xlink:href="#DejaVuSans-31"/>
       <use x="63.623047" xlink:href="#DejaVuSans-2e"/>
       <use x="95.410156" xlink:href="#DejaVuSans-35"/>
      </g>
     </g>
    </g>
    <g id="xtick_5">
     <g id="line2d_9">
      <path clip-path="url(#pa6da97c117)" d="M 288.226667 246.88 
L 288.226667 25.92 
" style="fill:none;stroke:#b0b0b0;stroke-linecap:square;stroke-width:0.8;"/>
     </g>
     <g id="line2d_10">
      <g>
       <use style="stroke:#000000;stroke-width:0.8;" x="288.226667" xlink:href="#md3d7c7a058" y="246.88"/>
      </g>
     </g>
     <g id="text_5">
      <!-- 2.0 -->
      <g transform="translate(280.275104 261.478437)scale(0.1 -0.1)">
       <defs>
        <path d="M 1228 531 
L 3431 531 
L 3431 0 
L 469 0 
L 469 531 
Q 828 903 1448 1529 
Q 2069 2156 2228 2338 
Q 2531 2678 2651 2914 
Q 2772 3150 2772 3378 
Q 2772 3750 2511 3984 
Q 2250 4219 1831 4219 
Q 1534 4219 1204 4116 
Q 875 4013 500 3803 
L 500 4441 
Q 881 4594 1212 4672 
Q 1544 4750 1819 4750 
Q 2544 4750 2975 4387 
Q 3406 4025 3406 3419 
Q 3406 3131 3298 2873 
Q 3191 2616 2906 2266 
Q 2828 2175 2409 1742 
Q 1991 1309 1228 531 
z
" id="DejaVuSans-32" transform="scale(0.015625)"/>
       </defs>
       <use xlink:href="#DejaVuSans-32"/>
       <use x="63.623047" xlink:href="#DejaVuSans-2e"/>
       <use x="95.410156" xlink:href="#DejaVuSans-30"/>
      </g>
     </g>
    </g>
    <g id="xtick_6">
     <g id="line2d_11">
      <path clip-path="url(#pa6da97c117)" d="M 350.738333 246.88 
L 350.738333 25.92 
" style="fill:none;stroke:#b0b0b0;stroke-linecap:square;stroke-width:0.8;"/>
     </g>
     <g id="line2d_12">
      <g>
       <use style="stroke:#000000;stroke-width:0.8;" x="350.738333" xlink:href="#md3d7c7a058" y="246.88"/>
      </g>
     </g>
     <g id="text_6">
      <!-- 2.5 -->
      <g transform="translate(342.786771 261.478437)scale(0.1 -0.1)">
       <use xlink:href="#DejaVuSans-32"/>
       <use x="63.623047" xlink:href="#DejaVuSans-2e"/>
       <use x="95.410156" xlink:href="#DejaVuSans-35"/>
      </g>
     </g>
    </g>
    <g id="xtick_7">
     <g id="line2d_13">
      <path clip-path="url(#pa6da97c117)" d="M 413.25 246.88 
L 413.25 25.92 
" style="fill:none;stroke:#b0b0b0;stroke-linecap:square;stroke-width:0.8;"/>
     </g>
     <g id="line2d_14">
      <g>
       <use style="stroke:#000000;stroke-width:0.8;" x="413.25" xlink:href="#md3d7c7a058" y="246.88"/>
      </g>
     </g>
     <g id="text_7">
      <!-- 3.0 -->
      <g transform="translate(405.298437 261.478437)scale(0.1 -0.1)">
       <defs>
        <path d="M 2597 2516 
Q 3050 2419 3304 2112 
Q 3559 1806 3559 1356 
Q 3559 666 3084 287 
Q 2609 -91 1734 -91 
Q 1441 -91 1130 -33 
Q 819 25 488 141 
L 488 750 
Q 750 597 1062 519 
Q 1375 441 1716 441 
Q 2309 441 2620 675 
Q 2931 909 2931 1356 
Q 2931 1769 2642 2001 
Q 2353 2234 1838 2234 
L 1294 2234 
L 1294 2753 
L 1863 2753 
Q 2328 2753 2575 2939 
Q 2822 3125 2822 3475 
Q 2822 3834 2567 4026 
Q 2313 4219 1838 4219 
Q 1578 4219 1281 4162 
Q 984 4106 628 3988 
L 628 4550 
Q 988 4650 1302 4700 
Q 1616 4750 1894 4750 
Q 2613 4750 3031 4423 
Q 3450 4097 3450 3541 
Q 3450 3153 3228 2886 
Q 3006 2619 2597 2516 
z
" id="DejaVuSans-33" transform="scale(0.015625)"/>
       </defs>
       <use xlink:href="#DejaVuSans-33"/>
       <use x="63.623047" xlink:href="#DejaVuSans-2e"/>
       <use x="95.410156" xlink:href="#DejaVuSans-30"/>
      </g>
     </g>
    </g>
    <g id="text_8">
     <!-- Time, $t$ -->
     <g transform="translate(208.165 275.156563)scale(0.1 -0.1)">
      <defs>
       <path d="M -19 4666 
L 3928 4666 
L 3928 4134 
L 2272 4134 
L 2272 0 
L 1638 0 
L 1638 4134 
L -19 4134 
L -19 4666 
z
" id="DejaVuSans-54" transform="scale(0.015625)"/>
       <path d="M 603 3500 
L 1178 3500 
L 1178 0 
L 603 0 
L 603 3500 
z
M 603 4863 
L 1178 4863 
L 1178 4134 
L 603 4134 
L 603 4863 
z
" id="DejaVuSans-69" transform="scale(0.015625)"/>
       <path d="M 3328 2828 
Q 3544 3216 3844 3400 
Q 4144 3584 4550 3584 
Q 5097 3584 5394 3201 
Q 5691 2819 5691 2113 
L 5691 0 
L 5113 0 
L 5113 2094 
Q 5113 2597 4934 2840 
Q 4756 3084 4391 3084 
Q 3944 3084 3684 2787 
Q 3425 2491 3425 1978 
L 3425 0 
L 2847 0 
L 2847 2094 
Q 2847 2600 2669 2842 
Q 2491 3084 2119 3084 
Q 1678 3084 1418 2786 
Q 1159 2488 1159 1978 
L 1159 0 
L 581 0 
L 581 3500 
L 1159 3500 
L 1159 2956 
Q 1356 3278 1631 3431 
Q 1906 3584 2284 3584 
Q 2666 3584 2933 3390 
Q 3200 3197 3328 2828 
z
" id="DejaVuSans-6d" transform="scale(0.015625)"/>
       <path d="M 3597 1894 
L 3597 1613 
L 953 1613 
Q 991 1019 1311 708 
Q 1631 397 2203 397 
Q 2534 397 2845 478 
Q 3156 559 3463 722 
L 3463 178 
Q 3153 47 2828 -22 
Q 2503 -91 2169 -91 
Q 1331 -91 842 396 
Q 353 884 353 1716 
Q 353 2575 817 3079 
Q 1281 3584 2069 3584 
Q 2775 3584 3186 3129 
Q 3597 2675 3597 1894 
z
M 3022 2063 
Q 3016 2534 2758 2815 
Q 2500 3097 2075 3097 
Q 1594 3097 1305 2825 
Q 1016 2553 972 2059 
L 3022 2063 
z
" id="DejaVuSans-65" transform="scale(0.015625)"/>
       <path d="M 750 794 
L 1409 794 
L 1409 256 
L 897 -744 
L 494 -744 
L 750 256 
L 750 794 
z
" id="DejaVuSans-2c" transform="scale(0.015625)"/>
       <path id="DejaVuSans-20" transform="scale(0.015625)"/>
       <path d="M 2706 3500 
L 2619 3053 
L 1472 3053 
L 1100 1153 
Q 1081 1047 1072 975 
Q 1063 903 1063 863 
Q 1063 663 1183 572 
Q 1303 481 1569 481 
L 2150 481 
L 2053 0 
L 1503 0 
Q 991 0 739 200 
Q 488 400 488 806 
Q 488 878 497 964 
Q 506 1050 525 1153 
L 897 3053 
L 409 3053 
L 500 3500 
L 978 3500 
L 1172 4494 
L 1747 4494 
L 1556 3500 
L 2706 3500 
z
" id="DejaVuSans-Oblique-74" transform="scale(0.015625)"/>
      </defs>
      <use transform="translate(0 0.015625)" xlink:href="#DejaVuSans-54"/>
      <use transform="translate(61.083984 0.015625)" xlink:href="#DejaVuSans-69"/>
      <use transform="translate(88.867188 0.015625)" xlink:href="#DejaVuSans-6d"/>
      <use transform="translate(186.279297 0.015625)" xlink:href="#DejaVuSans-65"/>
      <use transform="translate(247.802734 0.015625)" xlink:href="#DejaVuSans-2c"/>
      <use transform="translate(279.589844 0.015625)" xlink:href="#DejaVuSans-20"/>
      <use transform="translate(311.376953 0.015625)" xlink:href="#DejaVuSans-Oblique-74"/>
     </g>
    </g>
   </g>
   <g id="matplotlib.axis_2">
    <g id="ytick_1">
     <g id="line2d_15">
      <path clip-path="url(#pa6da97c117)" d="M 38.18 246.88 
L 413.25 246.88 
" style="fill:none;stroke:#b0b0b0;stroke-linecap:square;stroke-width:0.8;"/>
     </g>
     <g id="line2d_16">
      <defs>
       <path d="M 0 0 
L -3.5 0 
" id="ma648b79327" style="stroke:#000000;stroke-width:0.8;"/>
      </defs>
      <g>
       <use style="stroke:#000000;stroke-width:0.8;" x="38.18" xlink:href="#ma648b79327" y="246.88"/>
      </g>
     </g>
     <g id="text_9">
      <!-- 0 -->
      <g transform="translate(24.8175 250.679219)scale(0.1 -0.1)">
       <use xlink:href="#DejaVuSans-30"/>
      </g>
     </g>
    </g>
    <g id="ytick_2">
     <g id="line2d_17">
      <path clip-path="url(#pa6da97c117)" d="M 38.18 217.734591 
L 413.25 217.734591 
" style="fill:none;stroke:#b0b0b0;stroke-linecap:square;stroke-width:0.8;"/>
     </g>
     <g id="line2d_18">
      <g>
       <use style="stroke:#000000;stroke-width:0.8;" x="38.18" xlink:href="#ma648b79327" y="217.734591"/>
      </g>
     </g>
     <g id="text_10">
      <!-- 1 -->
      <g transform="translate(24.8175 221.53381)scale(0.1 -0.1)">
       <use xlink:href="#DejaVuSans-31"/>
      </g>
     </g>
    </g>
    <g id="ytick_3">
     <g id="line2d_19">
      <path clip-path="url(#pa6da97c117)" d="M 38.18 188.589182 
L 413.25 188.589182 
" style="fill:none;stroke:#b0b0b0;stroke-linecap:square;stroke-width:0.8;"/>
     </g>
     <g id="line2d_20">
      <g>
       <use style="stroke:#000000;stroke-width:0.8;" x="38.18" xlink:href="#ma648b79327" y="188.589182"/>
      </g>
     </g>
     <g id="text_11">
      <!-- 2 -->
      <g transform="translate(24.8175 192.388401)scale(0.1 -0.1)">
       <use xlink:href="#DejaVuSans-32"/>
      </g>
     </g>
    </g>
    <g id="ytick_4">
     <g id="line2d_21">
      <path clip-path="url(#pa6da97c117)" d="M 38.18 159.443774 
L 413.25 159.443774 
" style="fill:none;stroke:#b0b0b0;stroke-linecap:square;stroke-width:0.8;"/>
     </g>
     <g id="line2d_22">
      <g>
       <use style="stroke:#000000;stroke-width:0.8;" x="38.18" xlink:href="#ma648b79327" y="159.443774"/>
      </g>
     </g>
     <g id="text_12">
      <!-- 3 -->
      <g transform="translate(24.8175 163.242992)scale(0.1 -0.1)">
       <use xlink:href="#DejaVuSans-33"/>
      </g>
     </g>
    </g>
    <g id="ytick_5">
     <g id="line2d_23">
      <path clip-path="url(#pa6da97c117)" d="M 38.18 130.298365 
L 413.25 130.298365 
" style="fill:none;stroke:#b0b0b0;stroke-linecap:square;stroke-width:0.8;"/>
     </g>
     <g id="line2d_24">
      <g>
       <use style="stroke:#000000;stroke-width:0.8;" x="38.18" xlink:href="#ma648b79327" y="130.298365"/>
      </g>
     </g>
     <g id="text_13">
      <!-- 4 -->
      <g transform="translate(24.8175 134.097584)scale(0.1 -0.1)">
       <defs>
        <path d="M 2419 4116 
L 825 1625 
L 2419 1625 
L 2419 4116 
z
M 2253 4666 
L 3047 4666 
L 3047 1625 
L 3713 1625 
L 3713 1100 
L 3047 1100 
L 3047 0 
L 2419 0 
L 2419 1100 
L 313 1100 
L 313 1709 
L 2253 4666 
z
" id="DejaVuSans-34" transform="scale(0.015625)"/>
       </defs>
       <use xlink:href="#DejaVuSans-34"/>
      </g>
     </g>
    </g>
    <g id="ytick_6">
     <g id="line2d_25">
      <path clip-path="url(#pa6da97c117)" d="M 38.18 101.152956 
L 413.25 101.152956 
" style="fill:none;stroke:#b0b0b0;stroke-linecap:square;stroke-width:0.8;"/>
     </g>
     <g id="line2d_26">
      <g>
       <use style="stroke:#000000;stroke-width:0.8;" x="38.18" xlink:href="#ma648b79327" y="101.152956"/>
      </g>
     </g>
     <g id="text_14">
      <!-- 5 -->
      <g transform="translate(24.8175 104.952175)scale(0.1 -0.1)">
       <use xlink:href="#DejaVuSans-35"/>
      </g>
     </g>
    </g>
    <g id="ytick_7">
     <g id="line2d_27">
      <path clip-path="url(#pa6da97c117)" d="M 38.18 72.007547 
L 413.25 72.007547 
" style="fill:none;stroke:#b0b0b0;stroke-linecap:square;stroke-width:0.8;"/>
     </g>
     <g id="line2d_28">
      <g>
       <use style="stroke:#000000;stroke-width:0.8;" x="38.18" xlink:href="#ma648b79327" y="72.007547"/>
      </g>
     </g>
     <g id="text_15">
      <!-- 6 -->
      <g transform="translate(24.8175 75.806766)scale(0.1 -0.1)">
       <defs>
        <path d="M 2113 2584 
Q 1688 2584 1439 2293 
Q 1191 2003 1191 1497 
Q 1191 994 1439 701 
Q 1688 409 2113 409 
Q 2538 409 2786 701 
Q 3034 994 3034 1497 
Q 3034 2003 2786 2293 
Q 2538 2584 2113 2584 
z
M 3366 4563 
L 3366 3988 
Q 3128 4100 2886 4159 
Q 2644 4219 2406 4219 
Q 1781 4219 1451 3797 
Q 1122 3375 1075 2522 
Q 1259 2794 1537 2939 
Q 1816 3084 2150 3084 
Q 2853 3084 3261 2657 
Q 3669 2231 3669 1497 
Q 3669 778 3244 343 
Q 2819 -91 2113 -91 
Q 1303 -91 875 529 
Q 447 1150 447 2328 
Q 447 3434 972 4092 
Q 1497 4750 2381 4750 
Q 2619 4750 2861 4703 
Q 3103 4656 3366 4563 
z
" id="DejaVuSans-36" transform="scale(0.015625)"/>
       </defs>
       <use xlink:href="#DejaVuSans-36"/>
      </g>
     </g>
    </g>
    <g id="ytick_8">
     <g id="line2d_29">
      <path clip-path="url(#pa6da97c117)" d="M 38.18 42.862139 
L 413.25 42.862139 
" style="fill:none;stroke:#b0b0b0;stroke-linecap:square;stroke-width:0.8;"/>
     </g>
     <g id="line2d_30">
      <g>
       <use style="stroke:#000000;stroke-width:0.8;" x="38.18" xlink:href="#ma648b79327" y="42.862139"/>
      </g>
     </g>
     <g id="text_16">
      <!-- 7 -->
      <g transform="translate(24.8175 46.661357)scale(0.1 -0.1)">
       <defs>
        <path d="M 525 4666 
L 3525 4666 
L 3525 4397 
L 1831 0 
L 1172 0 
L 2766 4134 
L 525 4134 
L 525 4666 
z
" id="DejaVuSans-37" transform="scale(0.015625)"/>
       </defs>
       <use xlink:href="#DejaVuSans-37"/>
      </g>
     </g>
    </g>
    <g id="text_17">
     <!-- Maximum film height, $\operatorname{Max}\{\eta(\xi)\}$ -->
     <g transform="translate(18.7175 220.15)rotate(-90)scale(0.1 -0.1)">
      <defs>
       <path d="M 628 4666 
L 1569 4666 
L 2759 1491 
L 3956 4666 
L 4897 4666 
L 4897 0 
L 4281 0 
L 4281 4097 
L 3078 897 
L 2444 897 
L 1241 4097 
L 1241 0 
L 628 0 
L 628 4666 
z
" id="DejaVuSans-4d" transform="scale(0.015625)"/>
       <path d="M 2194 1759 
Q 1497 1759 1228 1600 
Q 959 1441 959 1056 
Q 959 750 1161 570 
Q 1363 391 1709 391 
Q 2188 391 2477 730 
Q 2766 1069 2766 1631 
L 2766 1759 
L 2194 1759 
z
M 3341 1997 
L 3341 0 
L 2766 0 
L 2766 531 
Q 2569 213 2275 61 
Q 1981 -91 1556 -91 
Q 1019 -91 701 211 
Q 384 513 384 1019 
Q 384 1609 779 1909 
Q 1175 2209 1959 2209 
L 2766 2209 
L 2766 2266 
Q 2766 2663 2505 2880 
Q 2244 3097 1772 3097 
Q 1472 3097 1187 3025 
Q 903 2953 641 2809 
L 641 3341 
Q 956 3463 1253 3523 
Q 1550 3584 1831 3584 
Q 2591 3584 2966 3190 
Q 3341 2797 3341 1997 
z
" id="DejaVuSans-61" transform="scale(0.015625)"/>
       <path d="M 3513 3500 
L 2247 1797 
L 3578 0 
L 2900 0 
L 1881 1375 
L 863 0 
L 184 0 
L 1544 1831 
L 300 3500 
L 978 3500 
L 1906 2253 
L 2834 3500 
L 3513 3500 
z
" id="DejaVuSans-78" transform="scale(0.015625)"/>
       <path d="M 544 1381 
L 544 3500 
L 1119 3500 
L 1119 1403 
Q 1119 906 1312 657 
Q 1506 409 1894 409 
Q 2359 409 2629 706 
Q 2900 1003 2900 1516 
L 2900 3500 
L 3475 3500 
L 3475 0 
L 2900 0 
L 2900 538 
Q 2691 219 2414 64 
Q 2138 -91 1772 -91 
Q 1169 -91 856 284 
Q 544 659 544 1381 
z
M 1991 3584 
L 1991 3584 
z
" id="DejaVuSans-75" transform="scale(0.015625)"/>
       <path d="M 2375 4863 
L 2375 4384 
L 1825 4384 
Q 1516 4384 1395 4259 
Q 1275 4134 1275 3809 
L 1275 3500 
L 2222 3500 
L 2222 3053 
L 1275 3053 
L 1275 0 
L 697 0 
L 697 3053 
L 147 3053 
L 147 3500 
L 697 3500 
L 697 3744 
Q 697 4328 969 4595 
Q 1241 4863 1831 4863 
L 2375 4863 
z
" id="DejaVuSans-66" transform="scale(0.015625)"/>
       <path d="M 603 4863 
L 1178 4863 
L 1178 0 
L 603 0 
L 603 4863 
z
" id="DejaVuSans-6c" transform="scale(0.015625)"/>
       <path d="M 3513 2113 
L 3513 0 
L 2938 0 
L 2938 2094 
Q 2938 2591 2744 2837 
Q 2550 3084 2163 3084 
Q 1697 3084 1428 2787 
Q 1159 2491 1159 1978 
L 1159 0 
L 581 0 
L 581 4863 
L 1159 4863 
L 1159 2956 
Q 1366 3272 1645 3428 
Q 1925 3584 2291 3584 
Q 2894 3584 3203 3211 
Q 3513 2838 3513 2113 
z
" id="DejaVuSans-68" transform="scale(0.015625)"/>
       <path d="M 2906 1791 
Q 2906 2416 2648 2759 
Q 2391 3103 1925 3103 
Q 1463 3103 1205 2759 
Q 947 2416 947 1791 
Q 947 1169 1205 825 
Q 1463 481 1925 481 
Q 2391 481 2648 825 
Q 2906 1169 2906 1791 
z
M 3481 434 
Q 3481 -459 3084 -895 
Q 2688 -1331 1869 -1331 
Q 1566 -1331 1297 -1286 
Q 1028 -1241 775 -1147 
L 775 -588 
Q 1028 -725 1275 -790 
Q 1522 -856 1778 -856 
Q 2344 -856 2625 -561 
Q 2906 -266 2906 331 
L 2906 616 
Q 2728 306 2450 153 
Q 2172 0 1784 0 
Q 1141 0 747 490 
Q 353 981 353 1791 
Q 353 2603 747 3093 
Q 1141 3584 1784 3584 
Q 2172 3584 2450 3431 
Q 2728 3278 2906 2969 
L 2906 3500 
L 3481 3500 
L 3481 434 
z
" id="DejaVuSans-67" transform="scale(0.015625)"/>
       <path d="M 1172 4494 
L 1172 3500 
L 2356 3500 
L 2356 3053 
L 1172 3053 
L 1172 1153 
Q 1172 725 1289 603 
Q 1406 481 1766 481 
L 2356 481 
L 2356 0 
L 1766 0 
Q 1100 0 847 248 
Q 594 497 594 1153 
L 594 3053 
L 172 3053 
L 172 3500 
L 594 3500 
L 594 4494 
L 1172 4494 
z
" id="DejaVuSans-74" transform="scale(0.015625)"/>
       <path d="M 3272 -594 
L 3272 -1044 
L 3078 -1044 
Q 2300 -1044 2036 -812 
Q 1772 -581 1772 109 
L 1772 856 
Q 1772 1328 1603 1509 
Q 1434 1691 991 1691 
L 800 1691 
L 800 2138 
L 991 2138 
Q 1438 2138 1605 2317 
Q 1772 2497 1772 2963 
L 1772 3713 
Q 1772 4403 2036 4633 
Q 2300 4863 3078 4863 
L 3272 4863 
L 3272 4416 
L 3059 4416 
Q 2619 4416 2484 4278 
Q 2350 4141 2350 3700 
L 2350 2925 
Q 2350 2434 2208 2212 
Q 2066 1991 1722 1913 
Q 2069 1828 2209 1606 
Q 2350 1384 2350 897 
L 2350 122 
Q 2350 -319 2484 -456 
Q 2619 -594 3059 -594 
L 3272 -594 
z
" id="DejaVuSans-7b" transform="scale(0.015625)"/>
       <path d="M 3703 2113 
L 3034 -1331 
L 2459 -1331 
L 3125 2094 
Q 3222 2591 3075 2838 
Q 2931 3084 2544 3084 
Q 2078 3084 1750 2788 
Q 1425 2491 1325 1978 
L 941 0 
L 363 0 
L 1044 3500 
L 1622 3500 
L 1516 2956 
Q 1781 3272 2094 3428 
Q 2403 3584 2769 3584 
Q 3372 3584 3609 3213 
Q 3844 2838 3703 2113 
z
" id="DejaVuSans-Oblique-3b7" transform="scale(0.015625)"/>
       <path d="M 1984 4856 
Q 1566 4138 1362 3434 
Q 1159 2731 1159 2009 
Q 1159 1288 1364 580 
Q 1569 -128 1984 -844 
L 1484 -844 
Q 1016 -109 783 600 
Q 550 1309 550 2009 
Q 550 2706 781 3412 
Q 1013 4119 1484 4856 
L 1984 4856 
z
" id="DejaVuSans-28" transform="scale(0.015625)"/>
       <path d="M 2016 397 
Q 2428 394 2628 159 
Q 2844 -88 2772 -463 
Q 2700 -822 2422 -1072 
Q 2119 -1344 1609 -1344 
Q 1656 -1109 1700 -872 
Q 1913 -888 2072 -750 
Q 2194 -641 2216 -525 
Q 2247 -359 2175 -222 
Q 2100 -91 1922 -91 
Q -25 -91 241 1275 
Q 422 2213 1516 2488 
Q 663 2600 822 3413 
Q 941 4028 1678 4284 
L 1028 4284 
L 1141 4863 
L 3606 4863 
L 3494 4284 
Q 1528 4284 1350 3375 
Q 1234 2778 2881 2750 
L 2778 2219 
Q 1009 2288 819 1275 
Q 659 428 2016 397 
z
" id="DejaVuSans-Oblique-3be" transform="scale(0.015625)"/>
       <path d="M 513 4856 
L 1013 4856 
Q 1481 4119 1714 3412 
Q 1947 2706 1947 2009 
Q 1947 1309 1714 600 
Q 1481 -109 1013 -844 
L 513 -844 
Q 928 -128 1133 580 
Q 1338 1288 1338 2009 
Q 1338 2731 1133 3434 
Q 928 4138 513 4856 
z
" id="DejaVuSans-29" transform="scale(0.015625)"/>
       <path d="M 800 -594 
L 1019 -594 
Q 1456 -594 1589 -459 
Q 1722 -325 1722 122 
L 1722 897 
Q 1722 1384 1862 1606 
Q 2003 1828 2350 1913 
Q 2003 1991 1862 2212 
Q 1722 2434 1722 2925 
L 1722 3700 
Q 1722 4144 1589 4280 
Q 1456 4416 1019 4416 
L 800 4416 
L 800 4863 
L 997 4863 
Q 1775 4863 2036 4633 
Q 2297 4403 2297 3713 
L 2297 2963 
Q 2297 2497 2465 2317 
Q 2634 2138 3078 2138 
L 3272 2138 
L 3272 1691 
L 3078 1691 
Q 2634 1691 2465 1509 
Q 2297 1328 2297 856 
L 2297 109 
Q 2297 -581 2036 -812 
Q 1775 -1044 997 -1044 
L 800 -1044 
L 800 -594 
z
" id="DejaVuSans-7d" transform="scale(0.015625)"/>
      </defs>
      <use transform="translate(0 0.015625)" xlink:href="#DejaVuSans-4d"/>
      <use transform="translate(86.279297 0.015625)" xlink:href="#DejaVuSans-61"/>
      <use transform="translate(147.558594 0.015625)" xlink:href="#DejaVuSans-78"/>
      <use transform="translate(206.738281 0.015625)" xlink:href="#DejaVuSans-69"/>
      <use transform="translate(234.521484 0.015625)" xlink:href="#DejaVuSans-6d"/>
      <use transform="translate(331.933594 0.015625)" xlink:href="#DejaVuSans-75"/>
      <use transform="translate(395.3125 0.015625)" xlink:href="#DejaVuSans-6d"/>
      <use transform="translate(492.724609 0.015625)" xlink:href="#DejaVuSans-20"/>
      <use transform="translate(524.511719 0.015625)" xlink:href="#DejaVuSans-66"/>
      <use transform="translate(559.716797 0.015625)" xlink:href="#DejaVuSans-69"/>
      <use transform="translate(587.5 0.015625)" xlink:href="#DejaVuSans-6c"/>
      <use transform="translate(615.283203 0.015625)" xlink:href="#DejaVuSans-6d"/>
      <use transform="translate(712.695312 0.015625)" xlink:href="#DejaVuSans-20"/>
      <use transform="translate(744.482422 0.015625)" xlink:href="#DejaVuSans-68"/>
      <use transform="translate(807.861328 0.015625)" xlink:href="#DejaVuSans-65"/>
      <use transform="translate(869.384766 0.015625)" xlink:href="#DejaVuSans-69"/>
      <use transform="translate(897.167969 0.015625)" xlink:href="#DejaVuSans-67"/>
      <use transform="translate(960.644531 0.015625)" xlink:href="#DejaVuSans-68"/>
      <use transform="translate(1024.023438 0.015625)" xlink:href="#DejaVuSans-74"/>
      <use transform="translate(1063.232422 0.015625)" xlink:href="#DejaVuSans-2c"/>
      <use transform="translate(1095.019531 0.015625)" xlink:href="#DejaVuSans-20"/>
      <use transform="translate(1126.806641 0.015625)" xlink:href="#DejaVuSans-4d"/>
      <use transform="translate(1213.085938 0.015625)" xlink:href="#DejaVuSans-61"/>
      <use transform="translate(1274.365234 0.015625)" xlink:href="#DejaVuSans-78"/>
      <use transform="translate(1349.780598 0.015625)" xlink:href="#DejaVuSans-7b"/>
      <use transform="translate(1413.403645 0.015625)" xlink:href="#DejaVuSans-Oblique-3b7"/>
      <use transform="translate(1476.782551 0.015625)" xlink:href="#DejaVuSans-28"/>
      <use transform="translate(1515.796223 0.015625)" xlink:href="#DejaVuSans-Oblique-3be"/>
      <use transform="translate(1571.557942 0.015625)" xlink:href="#DejaVuSans-29"/>
      <use transform="translate(1610.571614 0.015625)" xlink:href="#DejaVuSans-7d"/>
     </g>
    </g>
   </g>
   <g id="line2d_31">
    <path clip-path="url(#pa6da97c117)" d="M 38.18 55.202768 
L 41.968586 55.394105 
L 45.757172 55.460307 
L 49.545758 55.307111 
L 53.334343 55.374456 
L 57.122929 55.457668 
L 60.911515 55.522408 
L 64.700101 55.621675 
L 68.488687 55.741156 
L 72.277273 55.872616 
L 76.065859 55.919505 
L 79.854444 56.030518 
L 83.64303 56.077416 
L 87.431616 56.124963 
L 91.220202 56.133966 
L 95.008788 56.149622 
L 98.797374 56.132915 
L 102.58596 56.046203 
L 106.374545 55.926598 
L 110.163131 55.858854 
L 113.951717 55.818779 
L 117.740303 55.816968 
L 121.528889 55.782747 
L 125.317475 55.788093 
L 129.106061 55.77173 
L 132.894646 55.775726 
L 136.683232 55.770491 
L 140.471818 55.76891 
L 144.260404 55.730828 
L 148.04899 55.843413 
L 151.837576 55.865364 
L 155.626162 55.926599 
L 159.414747 55.994153 
L 163.203333 56.099916 
L 166.991919 56.174298 
L 170.780505 56.247002 
L 174.569091 56.375212 
L 178.357677 56.434154 
L 182.146263 56.574855 
L 185.934848 56.725618 
L 189.723434 56.704651 
L 193.51202 56.627171 
L 197.300606 56.580159 
L 201.089192 56.530276 
L 204.877778 56.530918 
L 208.666364 56.530207 
L 212.454949 56.554099 
L 216.243535 56.571638 
L 220.032121 56.559832 
L 223.820707 56.568153 
L 227.609293 56.550556 
L 231.397879 56.568962 
L 235.186465 56.628848 
L 238.975051 56.674434 
L 242.763636 56.733016 
L 246.552222 56.792702 
L 250.340808 56.867608 
L 254.129394 56.946065 
L 257.91798 57.013743 
L 261.706566 57.099185 
L 265.495152 57.172292 
L 269.283737 57.243439 
L 273.072323 57.305728 
L 276.860909 57.395798 
L 280.649495 57.515712 
L 284.438081 57.645575 
L 288.226667 57.787186 
L 292.015253 57.930122 
L 295.803838 58.068399 
L 299.592424 58.100599 
L 303.38101 58.104371 
L 307.169596 58.101963 
L 310.958182 58.082922 
L 314.746768 58.073308 
L 318.535354 58.097943 
L 322.323939 58.076275 
L 326.112525 58.108114 
L 329.901111 58.140633 
L 333.689697 58.18115 
L 337.478283 58.209497 
L 341.266869 58.265745 
L 345.055455 58.313459 
L 348.84404 58.37757 
L 352.632626 58.452247 
L 356.421212 58.486454 
L 360.209798 58.578883 
L 363.998384 58.643835 
L 367.78697 58.752157 
L 371.575556 58.848349 
L 375.364141 58.932801 
L 379.152727 59.033314 
L 382.941313 59.159341 
L 386.729899 59.259972 
L 390.518485 59.386721 
L 394.307071 59.453146 
L 398.095657 59.562549 
L 401.884242 59.64659 
L 405.672828 59.787474 
L 409.461414 59.907401 
L 413.25 60.00025 
" style="fill:none;stroke:#8000ff;stroke-linecap:square;stroke-width:1.5;"/>
   </g>
   <g id="line2d_32">
    <path clip-path="url(#pa6da97c117)" d="M 38.18 56.186621 
L 41.968586 56.315541 
L 45.757172 56.129889 
L 49.545758 56.069649 
L 53.334343 56.050968 
L 57.122929 56.01389 
L 60.911515 56.063432 
L 64.700101 56.033564 
L 68.488687 56.004818 
L 72.277273 55.925695 
L 76.065859 55.880925 
L 79.854444 55.882356 
L 83.64303 55.862325 
L 87.431616 55.917389 
L 91.220202 55.97807 
L 95.008788 56.036964 
L 98.797374 56.124619 
L 102.58596 56.211071 
L 106.374545 56.298707 
L 110.163131 56.416043 
L 113.951717 56.448168 
L 117.740303 56.453922 
L 121.528889 56.460731 
L 125.317475 56.494912 
L 129.106061 56.502471 
L 132.894646 56.612524 
L 136.683232 56.605659 
L 140.471818 56.520959 
L 144.260404 56.418375 
L 148.04899 56.441892 
L 151.837576 56.402534 
L 155.626162 56.419491 
L 159.414747 56.409621 
L 163.203333 56.408801 
L 166.991919 56.453522 
L 170.780505 56.433695 
L 174.569091 56.459837 
L 178.357677 56.477266 
L 182.146263 56.547728 
L 185.934848 56.658791 
L 189.723434 56.745787 
L 193.51202 56.87563 
L 197.300606 56.977891 
L 201.089192 57.089404 
L 204.877778 57.222304 
L 208.666364 57.356811 
L 212.454949 57.537033 
L 216.243535 57.709257 
L 220.032121 57.907623 
L 223.820707 58.097953 
L 227.609293 58.205859 
L 231.397879 58.235521 
L 235.186465 58.162692 
L 238.975051 58.254213 
L 242.763636 58.319214 
L 246.552222 58.352752 
L 250.340808 58.391032 
L 254.129394 58.500387 
L 257.91798 58.558289 
L 261.706566 58.683815 
L 265.495152 58.795975 
L 269.283737 58.911509 
L 273.072323 59.045471 
L 276.860909 59.166714 
L 280.649495 59.302674 
L 284.438081 59.467792 
L 288.226667 59.632488 
L 292.015253 59.810236 
L 295.803838 59.979457 
L 299.592424 60.166271 
L 303.38101 60.351265 
L 307.169596 60.566269 
L 310.958182 60.764287 
L 314.746768 61.051379 
L 318.535354 61.33611 
L 322.323939 61.581566 
L 326.112525 61.818895 
L 329.901111 62.117396 
L 333.689697 62.381486 
L 337.478283 62.67416 
L 341.266869 62.969527 
L 345.055455 63.170514 
L 348.84404 63.307746 
L 352.632626 63.489733 
L 356.421212 63.682883 
L 360.209798 63.854724 
L 363.998384 64.089312 
L 367.78697 64.292574 
L 371.575556 64.575643 
L 375.364141 64.763554 
L 379.152727 65.058626 
L 382.941313 65.279505 
L 386.729899 65.598085 
L 390.518485 65.871746 
L 394.307071 66.187065 
L 398.095657 66.433435 
L 401.884242 66.749744 
L 405.672828 67.013421 
L 409.461414 67.400893 
L 413.25 67.693298 
" style="fill:none;stroke:#4856fb;stroke-linecap:square;stroke-width:1.5;"/>
   </g>
   <g id="line2d_33">
    <path clip-path="url(#pa6da97c117)" d="M 38.18 56.186621 
L 41.968586 56.303267 
L 45.757172 56.210387 
L 49.545758 56.140379 
L 53.334343 56.141795 
L 57.122929 56.094096 
L 60.911515 56.104484 
L 64.700101 56.098004 
L 68.488687 56.008987 
L 72.277273 55.923621 
L 76.065859 55.92582 
L 79.854444 55.90894 
L 83.64303 55.907071 
L 87.431616 55.973483 
L 91.220202 56.059603 
L 95.008788 56.190946 
L 98.797374 56.356358 
L 102.58596 56.569674 
L 106.374545 56.68341 
L 110.163131 56.786991 
L 113.951717 56.889774 
L 117.740303 56.979274 
L 121.528889 57.127196 
L 125.317475 57.267975 
L 129.106061 57.474758 
L 132.894646 57.525964 
L 136.683232 57.500902 
L 140.471818 57.518881 
L 144.260404 57.616915 
L 148.04899 57.777607 
L 151.837576 57.994984 
L 155.626162 58.185262 
L 159.414747 58.428409 
L 163.203333 58.684012 
L 166.991919 58.943616 
L 170.780505 59.237239 
L 174.569091 59.545892 
L 178.357677 59.910049 
L 182.146263 60.35926 
L 185.934848 60.829604 
L 189.723434 61.320564 
L 193.51202 61.898384 
L 197.300606 62.496323 
L 201.089192 63.100707 
L 204.877778 63.75715 
L 208.666364 64.293672 
L 212.454949 64.776215 
L 216.243535 65.295231 
L 220.032121 65.871271 
L 223.820707 66.474144 
L 227.609293 67.185045 
L 231.397879 67.842835 
L 235.186465 68.565401 
L 238.975051 69.247834 
L 242.763636 69.951919 
L 246.552222 70.635666 
L 250.340808 71.425952 
L 254.129394 72.254678 
L 257.91798 73.13658 
L 261.706566 73.990984 
L 265.495152 74.955743 
L 269.283737 75.879072 
L 273.072323 76.947515 
L 276.860909 77.886486 
L 280.649495 78.941068 
L 284.438081 79.87478 
L 288.226667 80.759444 
L 292.015253 81.664579 
L 295.803838 82.525431 
L 299.592424 83.477247 
L 303.38101 84.380257 
L 307.169596 85.381704 
L 310.958182 86.335689 
L 314.746768 87.45257 
L 318.535354 88.529997 
L 322.323939 89.652957 
L 326.112525 90.782239 
L 329.901111 91.907948 
L 333.689697 93.005465 
L 337.478283 94.095977 
L 341.266869 95.292041 
L 345.055455 96.283034 
L 348.84404 97.458525 
L 352.632626 98.677255 
L 356.421212 99.91511 
L 360.209798 101.161347 
L 363.998384 102.419313 
L 367.78697 103.606596 
L 371.575556 104.839183 
L 375.364141 106.037416 
L 379.152727 107.262454 
L 382.941313 108.395446 
L 386.729899 109.54035 
L 390.518485 110.678505 
L 394.307071 111.758136 
L 398.095657 112.836915 
L 401.884242 113.92773 
L 405.672828 114.99824 
L 409.461414 116.089658 
L 413.25 117.099797 
" style="fill:none;stroke:#10a2f0;stroke-linecap:square;stroke-width:1.5;"/>
   </g>
   <g id="line2d_34">
    <path clip-path="url(#pa6da97c117)" d="M 38.18 55.202768 
L 41.968586 55.35495 
L 45.757172 55.451224 
L 49.545758 55.362501 
L 53.334343 55.417975 
L 57.122929 55.507899 
L 60.911515 55.615541 
L 64.700101 55.719247 
L 68.488687 55.769578 
L 72.277273 55.856545 
L 76.065859 56.000353 
L 79.854444 56.064743 
L 83.64303 56.096595 
L 87.431616 56.121071 
L 91.220202 56.171192 
L 95.008788 56.183267 
L 98.797374 56.218842 
L 102.58596 56.11724 
L 106.374545 56.131684 
L 110.163131 56.066206 
L 113.951717 56.059422 
L 117.740303 56.058616 
L 121.528889 55.989007 
L 125.317475 56.064429 
L 129.106061 56.122529 
L 132.894646 56.223392 
L 136.683232 56.275921 
L 140.471818 56.407484 
L 144.260404 56.463811 
L 148.04899 56.578243 
L 151.837576 56.742343 
L 155.626162 56.84817 
L 159.414747 57.053477 
L 163.203333 57.283302 
L 166.991919 57.47787 
L 170.780505 57.745967 
L 174.569091 57.987125 
L 178.357677 58.238663 
L 182.146263 58.539128 
L 185.934848 58.674376 
L 189.723434 58.687625 
L 193.51202 58.869317 
L 197.300606 59.015042 
L 201.089192 59.207925 
L 204.877778 59.476774 
L 208.666364 59.685274 
L 212.454949 60.030131 
L 216.243535 60.334436 
L 220.032121 60.649687 
L 223.820707 60.93499 
L 227.609293 61.284972 
L 231.397879 61.667842 
L 235.186465 62.138282 
L 238.975051 62.553967 
L 242.763636 63.056067 
L 246.552222 63.521835 
L 250.340808 64.046349 
L 254.129394 64.541743 
L 257.91798 65.076895 
L 261.706566 65.655162 
L 265.495152 66.215462 
L 269.283737 66.744325 
L 273.072323 67.23503 
L 276.860909 67.590229 
L 280.649495 68.127773 
L 284.438081 68.625154 
L 288.226667 69.134023 
L 292.015253 69.692839 
L 295.803838 70.232024 
L 299.592424 70.887875 
L 303.38101 71.461496 
L 307.169596 72.23092 
L 310.958182 72.879951 
L 314.746768 73.603838 
L 318.535354 74.34786 
L 322.323939 75.075946 
L 326.112525 75.909253 
L 329.901111 76.723009 
L 333.689697 77.565784 
L 337.478283 78.395825 
L 341.266869 79.277376 
L 345.055455 80.117546 
L 348.84404 81.074681 
L 352.632626 82.026639 
L 356.421212 82.974422 
L 360.209798 83.902584 
L 363.998384 84.838449 
L 367.78697 85.676077 
L 371.575556 86.545615 
L 375.364141 87.488162 
L 379.152727 88.420724 
L 382.941313 89.395158 
L 386.729899 90.351027 
L 390.518485 91.359727 
L 394.307071 92.326866 
L 398.095657 93.357581 
L 401.884242 94.448633 
L 405.672828 95.42843 
L 409.461414 96.48934 
L 413.25 97.600519 
" style="fill:none;stroke:#2adddd;stroke-linecap:square;stroke-width:1.5;"/>
   </g>
   <g id="line2d_35">
    <path clip-path="url(#pa6da97c117)" d="M 38.18 55.202768 
L 41.968586 55.274889 
L 45.757172 55.365871 
L 49.545758 55.276139 
L 53.334343 55.285048 
L 57.122929 55.335504 
L 60.911515 55.4232 
L 64.700101 55.527059 
L 68.488687 55.743646 
L 72.277273 55.936233 
L 76.065859 56.155921 
L 79.854444 56.312827 
L 83.64303 56.406531 
L 87.431616 56.480147 
L 91.220202 56.550373 
L 95.008788 56.623574 
L 98.797374 56.770677 
L 102.58596 56.758603 
L 106.374545 56.849834 
L 110.163131 56.890336 
L 113.951717 57.009268 
L 117.740303 57.160447 
L 121.528889 57.269587 
L 125.317475 57.487545 
L 129.106061 57.708071 
L 132.894646 58.012539 
L 136.683232 58.276783 
L 140.471818 58.70049 
L 144.260404 59.130372 
L 148.04899 59.519799 
L 151.837576 60.106852 
L 155.626162 60.675769 
L 159.414747 61.293528 
L 163.203333 61.952269 
L 166.991919 62.57947 
L 170.780505 63.371298 
L 174.569091 64.1594 
L 178.357677 64.770668 
L 182.146263 65.435546 
L 185.934848 66.105631 
L 189.723434 66.963991 
L 193.51202 67.822228 
L 197.300606 68.783455 
L 201.089192 69.795456 
L 204.877778 70.710701 
L 208.666364 71.959625 
L 212.454949 73.141322 
L 216.243535 74.432246 
L 220.032121 75.668697 
L 223.820707 76.935841 
L 227.609293 78.23778 
L 231.397879 79.637501 
L 235.186465 81.04819 
L 238.975051 82.521485 
L 242.763636 84.011194 
L 246.552222 85.365909 
L 250.340808 86.740188 
L 254.129394 88.159586 
L 257.91798 89.531601 
L 261.706566 90.944571 
L 265.495152 92.347006 
L 269.283737 93.735692 
L 273.072323 95.162135 
L 276.860909 96.666077 
L 280.649495 98.077617 
L 284.438081 99.620215 
L 288.226667 101.122263 
L 292.015253 102.660542 
L 295.803838 104.219603 
L 299.592424 105.796028 
L 303.38101 107.387837 
L 307.169596 108.991544 
L 310.958182 110.621407 
L 314.746768 112.296963 
L 318.535354 113.85164 
L 322.323939 115.462006 
L 326.112525 117.044432 
L 329.901111 118.657865 
L 333.689697 120.269706 
L 337.478283 121.849897 
L 341.266869 123.572114 
L 345.055455 125.166049 
L 348.84404 126.79074 
L 352.632626 128.407628 
L 356.421212 130.006718 
L 360.209798 131.511466 
L 363.998384 132.939106 
L 367.78697 134.496727 
L 371.575556 136.020014 
L 375.364141 137.415213 
L 379.152727 138.834085 
L 382.941313 140.293559 
L 386.729899 141.704562 
L 390.518485 143.125365 
L 394.307071 144.583552 
L 398.095657 146.04442 
L 401.884242 147.458743 
L 405.672828 148.789949 
L 409.461414 150.055084 
L 413.25 151.315022 
" style="fill:none;stroke:#62fbc4;stroke-linecap:square;stroke-width:1.5;"/>
   </g>
   <g id="line2d_36">
    <path clip-path="url(#pa6da97c117)" d="M 38.18 55.201851 
L 41.968586 55.407326 
L 45.757172 55.35128 
L 49.545758 55.381135 
L 53.334343 55.427754 
L 57.122929 55.580225 
L 60.911515 55.830412 
L 64.700101 56.140523 
L 68.488687 56.350901 
L 72.277273 56.505417 
L 76.065859 56.676587 
L 79.854444 56.972224 
L 83.64303 57.343206 
L 87.431616 57.730834 
L 91.220202 58.039224 
L 95.008788 58.348526 
L 98.797374 58.839273 
L 102.58596 59.605119 
L 106.374545 60.317701 
L 110.163131 60.926896 
L 113.951717 61.523375 
L 117.740303 62.402106 
L 121.528889 63.369305 
L 125.317475 64.400777 
L 129.106061 65.66625 
L 132.894646 66.887755 
L 136.683232 68.122396 
L 140.471818 69.616133 
L 144.260404 71.209976 
L 148.04899 72.956246 
L 151.837576 74.725247 
L 155.626162 76.597252 
L 159.414747 78.624711 
L 163.203333 80.698319 
L 166.991919 83.067144 
L 170.780505 85.435493 
L 174.569091 87.866277 
L 178.357677 90.242352 
L 182.146263 92.640652 
L 185.934848 95.217132 
L 189.723434 97.926013 
L 193.51202 100.778543 
L 197.300606 103.676977 
L 201.089192 106.743315 
L 204.877778 109.962492 
L 208.666364 112.983941 
L 212.454949 115.881628 
L 216.243535 118.830639 
L 220.032121 121.723143 
L 223.820707 124.674559 
L 227.609293 127.556783 
L 231.397879 130.54786 
L 235.186465 133.495171 
L 238.975051 136.197221 
L 242.763636 138.918 
L 246.552222 141.712031 
L 250.340808 144.301925 
L 254.129394 146.817569 
L 257.91798 149.087416 
L 261.706566 151.358563 
L 265.495152 153.562448 
L 269.283737 155.532559 
L 273.072323 157.384639 
L 276.860909 159.034801 
L 280.649495 160.677017 
L 284.438081 162.228105 
L 288.226667 163.698664 
L 292.015253 165.125494 
L 295.803838 166.410691 
L 299.592424 167.606111 
L 303.38101 168.909765 
L 307.169596 170.219993 
L 310.958182 171.417047 
L 314.746768 172.547155 
L 318.535354 173.495458 
L 322.323939 174.505609 
L 326.112525 175.465623 
L 329.901111 176.432996 
L 333.689697 177.434334 
L 337.478283 178.335731 
L 341.266869 179.225886 
L 345.055455 180.003284 
L 348.84404 180.782251 
L 352.632626 181.484837 
L 356.421212 182.209025 
L 360.209798 182.806994 
L 363.998384 183.32079 
L 367.78697 183.844974 
L 371.575556 184.333866 
L 375.364141 184.784454 
L 379.152727 185.218887 
L 382.941313 185.690166 
L 386.729899 186.044602 
L 390.518485 186.449666 
L 394.307071 186.901919 
L 398.095657 187.24001 
L 401.884242 187.6116 
L 405.672828 188.0235 
L 409.461414 188.376404 
L 413.25 188.696697 
" style="fill:none;stroke:#9cfba4;stroke-linecap:square;stroke-width:1.5;"/>
   </g>
   <g id="line2d_37">
    <path clip-path="url(#pa6da97c117)" d="M 38.18 55.201851 
L 41.968586 55.79043 
L 45.757172 55.648084 
L 49.545758 55.804825 
L 53.334343 55.825956 
L 57.122929 56.131396 
L 60.911515 56.483451 
L 64.700101 56.858158 
L 68.488687 56.991542 
L 72.277273 57.658252 
L 76.065859 58.160089 
L 79.854444 59.232376 
L 83.64303 60.217254 
L 87.431616 61.092791 
L 91.220202 62.09179 
L 95.008788 63.005031 
L 98.797374 64.588316 
L 102.58596 66.368913 
L 106.374545 68.16063 
L 110.163131 69.986489 
L 113.951717 72.276419 
L 117.740303 75.03781 
L 121.528889 77.977245 
L 125.317475 81.024869 
L 129.106061 84.360303 
L 132.894646 87.548905 
L 136.683232 91.117467 
L 140.471818 94.824848 
L 144.260404 98.539713 
L 148.04899 102.175568 
L 151.837576 105.734554 
L 155.626162 109.59132 
L 159.414747 113.730701 
L 163.203333 117.690746 
L 166.991919 121.363982 
L 170.780505 125.006784 
L 174.569091 128.490082 
L 178.357677 132.063755 
L 182.146263 135.384263 
L 185.934848 138.599053 
L 189.723434 141.920812 
L 193.51202 144.723296 
L 197.300606 147.746098 
L 201.089192 150.663634 
L 204.877778 153.51216 
L 208.666364 156.441904 
L 212.454949 159.162989 
L 216.243535 161.928382 
L 220.032121 164.385942 
L 223.820707 166.640523 
L 227.609293 168.714892 
L 231.397879 170.648669 
L 235.186465 172.387524 
L 238.975051 173.914171 
L 242.763636 175.28765 
L 246.552222 176.857559 
L 250.340808 178.26182 
L 254.129394 179.444615 
L 257.91798 180.284539 
L 261.706566 180.874878 
L 265.495152 181.541753 
L 269.283737 182.108198 
L 273.072323 182.640204 
L 276.860909 183.062901 
L 280.649495 183.56962 
L 284.438081 184.051623 
L 288.226667 184.568575 
L 292.015253 185.140991 
L 295.803838 185.738679 
L 299.592424 186.31353 
L 303.38101 186.964906 
L 307.169596 187.74797 
L 310.958182 188.650073 
L 314.746768 189.619929 
L 318.535354 190.767844 
L 322.323939 191.939896 
L 326.112525 193.265008 
L 329.901111 194.882338 
L 333.689697 196.285366 
L 337.478283 197.728859 
L 341.266869 199.271678 
L 345.055455 200.773479 
L 348.84404 202.123378 
L 352.632626 203.255057 
L 356.421212 204.361635 
L 360.209798 205.371328 
L 363.998384 205.777763 
L 367.78697 205.889047 
L 371.575556 206.099078 
L 375.364141 206.205753 
L 379.152727 206.276322 
L 382.941313 206.46941 
L 386.729899 206.631507 
L 390.518485 206.799596 
L 394.307071 207.057754 
L 398.095657 207.267002 
L 401.884242 207.452305 
L 405.672828 207.767878 
L 409.461414 207.969748 
L 413.25 208.124476 
" style="fill:none;stroke:#d4dd80;stroke-linecap:square;stroke-width:1.5;"/>
   </g>
   <g id="line2d_38">
    <path clip-path="url(#pa6da97c117)" d="M 38.18 56.077203 
L 41.968586 56.048951 
L 45.757172 56.189014 
L 49.545758 56.185884 
L 53.334343 56.485045 
L 57.122929 56.922196 
L 60.911515 57.558966 
L 64.700101 58.453694 
L 68.488687 59.699067 
L 72.277273 61.141041 
L 76.065859 63.181496 
L 79.854444 65.775294 
L 83.64303 68.905221 
L 87.431616 72.473871 
L 91.220202 76.540314 
L 95.008788 81.235719 
L 98.797374 86.574641 
L 102.58596 92.255495 
L 106.374545 98.09241 
L 110.163131 104.245738 
L 113.951717 110.486833 
L 117.740303 116.80818 
L 121.528889 122.964915 
L 125.317475 128.775431 
L 129.106061 134.459961 
L 132.894646 139.916094 
L 136.683232 145.048225 
L 140.471818 149.82476 
L 144.260404 154.132414 
L 148.04899 158.184367 
L 151.837576 161.904722 
L 155.626162 165.374267 
L 159.414747 168.596314 
L 163.203333 171.69663 
L 166.991919 174.612752 
L 170.780505 177.330727 
L 174.569091 180.007252 
L 178.357677 182.617863 
L 182.146263 185.17018 
L 185.934848 187.684011 
L 189.723434 190.128982 
L 193.51202 192.317815 
L 197.300606 194.050325 
L 201.089192 195.588075 
L 204.877778 196.978156 
L 208.666364 198.285143 
L 212.454949 199.6265 
L 216.243535 200.715963 
L 220.032121 201.881445 
L 223.820707 202.883555 
L 227.609293 203.905234 
L 231.397879 204.885561 
L 235.186465 205.747838 
L 238.975051 206.623831 
L 242.763636 207.457363 
L 246.552222 208.185559 
L 250.340808 208.773726 
L 254.129394 209.278331 
L 257.91798 209.71689 
L 261.706566 210.09459 
L 265.495152 210.461527 
L 269.283737 210.879102 
L 273.072323 211.334059 
L 276.860909 211.791289 
L 280.649495 212.280568 
L 284.438081 212.795525 
L 288.226667 213.240793 
L 292.015253 213.722631 
L 295.803838 214.224634 
L 299.592424 214.68064 
L 303.38101 215.11907 
L 307.169596 215.594482 
L 310.958182 215.953781 
L 314.746768 216.222822 
L 318.535354 216.518143 
L 322.323939 216.827655 
L 326.112525 217.080176 
L 329.901111 217.366158 
L 333.689697 217.709745 
L 337.478283 218.092768 
L 341.266869 218.414044 
L 345.055455 218.605854 
L 348.84404 218.644419 
L 352.632626 218.63918 
L 356.421212 218.545608 
L 360.209798 218.452288 
L 363.998384 218.408415 
L 367.78697 218.463345 
L 371.575556 218.365388 
L 375.364141 218.420647 
L 379.152727 218.523249 
L 382.941313 218.644273 
L 386.729899 218.657356 
L 390.518485 218.584401 
L 394.307071 218.616222 
L 398.095657 218.708985 
L 401.884242 218.884452 
L 405.672828 219.126346 
L 409.461414 219.434968 
L 413.25 219.583553 
" style="fill:none;stroke:#ffa256;stroke-linecap:square;stroke-width:1.5;"/>
   </g>
   <g id="line2d_39">
    <path clip-path="url(#pa6da97c117)" d="M 38.18 56.186621 
L 41.968586 56.214929 
L 45.757172 56.436239 
L 49.545758 56.852537 
L 53.334343 57.408662 
L 57.122929 58.495291 
L 60.911515 60.01634 
L 64.700101 62.406916 
L 68.488687 65.024005 
L 72.277273 68.644735 
L 76.065859 72.720549 
L 79.854444 77.455787 
L 83.64303 83.046631 
L 87.431616 89.397623 
L 91.220202 96.209534 
L 95.008788 103.337256 
L 98.797374 110.856785 
L 102.58596 118.351329 
L 106.374545 125.820075 
L 110.163131 132.704079 
L 113.951717 139.033695 
L 117.740303 144.909865 
L 121.528889 150.309298 
L 125.317475 155.501845 
L 129.106061 160.334215 
L 132.894646 164.649997 
L 136.683232 168.716043 
L 140.471818 172.295261 
L 144.260404 175.521376 
L 148.04899 178.479475 
L 151.837576 181.404594 
L 155.626162 183.976562 
L 159.414747 186.612215 
L 163.203333 189.116341 
L 166.991919 191.485131 
L 170.780505 193.609917 
L 174.569091 195.499985 
L 178.357677 197.167474 
L 182.146263 198.575447 
L 185.934848 199.845503 
L 189.723434 201.068873 
L 193.51202 202.233027 
L 197.300606 203.30379 
L 201.089192 204.237012 
L 204.877778 205.212487 
L 208.666364 206.143492 
L 212.454949 207.258169 
L 216.243535 208.273058 
L 220.032121 209.219382 
L 223.820707 210.144842 
L 227.609293 211.31245 
L 231.397879 212.494459 
L 235.186465 213.626521 
L 238.975051 214.386209 
L 242.763636 214.89556 
L 246.552222 215.191446 
L 250.340808 215.498964 
L 254.129394 215.720737 
L 257.91798 215.846164 
L 261.706566 215.976261 
L 265.495152 216.214855 
L 269.283737 216.175628 
L 273.072323 216.221214 
L 276.860909 216.262919 
L 280.649495 216.357 
L 284.438081 216.47799 
L 288.226667 216.605395 
L 292.015253 216.911994 
L 295.803838 217.33908 
L 299.592424 217.660134 
L 303.38101 217.844492 
L 307.169596 217.87447 
L 310.958182 217.88144 
L 314.746768 218.011947 
L 318.535354 218.157273 
L 322.323939 218.305713 
L 326.112525 218.433309 
L 329.901111 218.432102 
L 333.689697 218.360606 
L 337.478283 218.310902 
L 341.266869 218.216288 
L 345.055455 218.118672 
L 348.84404 218.135093 
L 352.632626 218.311365 
L 356.421212 218.575832 
L 360.209798 218.804038 
L 363.998384 219.086223 
L 367.78697 219.521846 
L 371.575556 219.622778 
L 375.364141 219.239319 
L 379.152727 219.080261 
L 382.941313 219.307831 
L 386.729899 219.370689 
L 390.518485 219.020934 
L 394.307071 218.856444 
L 398.095657 218.912622 
L 401.884242 219.006625 
L 405.672828 219.289703 
L 409.461414 219.677693 
L 413.25 219.682529 
" style="fill:none;stroke:#ff562c;stroke-linecap:square;stroke-width:1.5;"/>
   </g>
   <g id="line2d_40">
    <path clip-path="url(#pa6da97c117)" d="M 38.18 56.077203 
L 41.968586 56.734833 
L 45.757172 57.178433 
L 49.545758 57.680193 
L 53.334343 58.611555 
L 57.122929 60.426869 
L 60.911515 63.571069 
L 64.700101 67.163134 
L 68.488687 71.520132 
L 72.277273 76.973071 
L 76.065859 83.586432 
L 79.854444 90.798228 
L 83.64303 98.746212 
L 87.431616 107.418317 
L 91.220202 116.012411 
L 95.008788 124.560576 
L 98.797374 132.756449 
L 102.58596 140.2241 
L 106.374545 147.493805 
L 110.163131 154.396949 
L 113.951717 160.441969 
L 117.740303 165.945663 
L 121.528889 170.741756 
L 125.317475 175.253535 
L 129.106061 179.465272 
L 132.894646 183.237803 
L 136.683232 186.879185 
L 140.471818 190.024656 
L 144.260404 192.988313 
L 148.04899 195.722382 
L 151.837576 198.111526 
L 155.626162 200.487379 
L 159.414747 202.413621 
L 163.203333 204.149562 
L 166.991919 205.691048 
L 170.780505 206.995153 
L 174.569091 208.216593 
L 178.357677 209.582478 
L 182.146263 210.808767 
L 185.934848 212.152608 
L 189.723434 213.25475 
L 193.51202 214.13261 
L 197.300606 214.959126 
L 201.089192 215.068136 
L 204.877778 215.027682 
L 208.666364 214.98049 
L 212.454949 214.966154 
L 216.243535 215.280637 
L 220.032121 215.815075 
L 223.820707 216.459702 
L 227.609293 216.88705 
L 231.397879 217.011289 
L 235.186465 216.905092 
L 238.975051 216.770732 
L 242.763636 216.924332 
L 246.552222 217.219476 
L 250.340808 217.516614 
L 254.129394 217.890367 
L 257.91798 218.124208 
L 261.706566 218.320123 
L 265.495152 218.598668 
L 269.283737 218.670763 
L 273.072323 218.557079 
L 276.860909 218.294453 
L 280.649495 218.167108 
L 284.438081 218.211301 
L 288.226667 217.91513 
L 292.015253 217.77686 
L 295.803838 217.611956 
L 299.592424 217.328102 
L 303.38101 216.897157 
L 307.169596 216.650179 
L 310.958182 216.633744 
L 314.746768 216.695894 
L 318.535354 216.669189 
L 322.323939 216.588591 
L 326.112525 216.737354 
L 329.901111 217.383273 
L 333.689697 217.953092 
L 337.478283 218.343931 
L 341.266869 218.535463 
L 345.055455 218.662933 
L 348.84404 218.655792 
L 352.632626 218.470267 
L 356.421212 218.306293 
L 360.209798 218.402186 
L 363.998384 218.770636 
L 367.78697 218.815662 
L 371.575556 218.751525 
L 375.364141 218.586749 
L 379.152727 218.175703 
L 382.941313 218.048609 
L 386.729899 218.312036 
L 390.518485 218.629274 
L 394.307071 218.617639 
L 398.095657 218.45575 
L 401.884242 218.584409 
L 405.672828 218.737953 
L 409.461414 218.954247 
L 413.25 219.279017 
" style="fill:none;stroke:#ff0000;stroke-linecap:square;stroke-width:1.5;"/>
   </g>
   <g id="line2d_41">
    <path clip-path="url(#pa6da97c117)" d="M 38.18 56.186621 
L 41.968586 55.995564 
L 45.757172 55.84079 
L 49.545758 55.74348 
L 53.334343 55.714063 
L 57.122929 55.7195 
L 60.911515 55.705473 
L 64.700101 55.695443 
L 68.488687 55.679169 
L 72.277273 55.631529 
L 76.065859 55.627691 
L 79.854444 55.663723 
L 83.64303 55.736824 
L 87.431616 55.888457 
L 91.220202 56.056104 
L 95.008788 56.10723 
L 98.797374 55.966973 
L 102.58596 55.852371 
L 106.374545 55.771099 
L 110.163131 55.697801 
L 113.951717 55.645504 
L 117.740303 55.59188 
L 121.528889 55.499681 
L 125.317475 55.418266 
L 129.106061 55.368884 
L 132.894646 55.32041 
L 136.683232 55.33141 
L 140.471818 55.382475 
L 144.260404 55.43975 
L 148.04899 55.547581 
L 151.837576 55.658753 
L 155.626162 55.769706 
L 159.414747 55.921299 
L 163.203333 55.945366 
L 166.991919 55.798662 
L 170.780505 55.666458 
L 174.569091 55.538902 
L 178.357677 55.432793 
L 182.146263 55.338664 
L 185.934848 55.29277 
L 189.723434 55.28343 
L 193.51202 55.260947 
L 197.300606 55.265876 
L 201.089192 55.283912 
L 204.877778 55.280047 
L 208.666364 55.311054 
L 212.454949 55.360474 
L 216.243535 55.421362 
L 220.032121 55.543936 
L 223.820707 55.673871 
L 227.609293 55.814731 
L 231.397879 55.791885 
L 235.186465 55.664617 
L 238.975051 55.552264 
L 242.763636 55.443122 
L 246.552222 55.350307 
L 250.340808 55.274834 
L 254.129394 55.196103 
L 257.91798 55.157434 
L 261.706566 55.157076 
L 265.495152 55.148039 
L 269.283737 55.180977 
L 273.072323 55.235541 
L 276.860909 55.282005 
L 280.649495 55.366786 
L 284.438081 55.450193 
L 288.226667 55.524798 
L 292.015253 55.636343 
L 295.803838 55.730339 
L 299.592424 55.759867 
L 303.38101 55.623821 
L 307.169596 55.486496 
L 310.958182 55.372208 
L 314.746768 55.270214 
L 318.535354 55.204443 
L 322.323939 55.165328 
L 326.112525 55.117621 
L 329.901111 55.102499 
L 333.689697 55.116379 
L 337.478283 55.111795 
L 341.266869 55.141945 
L 345.055455 55.187617 
L 348.84404 55.226883 
L 352.632626 55.311565 
L 356.421212 55.40279 
L 360.209798 55.500261 
L 363.998384 55.647397 
L 367.78697 55.750299 
L 371.575556 55.611715 
L 375.364141 55.496593 
L 379.152727 55.386385 
L 382.941313 55.289089 
L 386.729899 55.194667 
L 390.518485 55.13657 
L 394.307071 55.106929 
L 398.095657 55.0681 
L 401.884242 55.065409 
L 405.672828 55.090718 
L 409.461414 55.099285 
L 413.25 55.138933 
" style="fill:none;stroke:#000000;stroke-dasharray:5.55,2.4;stroke-dashoffset:0;stroke-width:1.5;"/>
   </g>
   <g id="patch_3">
    <path d="M 38.18 246.88 
L 38.18 25.92 
" style="fill:none;stroke:#000000;stroke-linecap:square;stroke-linejoin:miter;stroke-width:0.8;"/>
   </g>
   <g id="patch_4">
    <path d="M 413.25 246.88 
L 413.25 25.92 
" style="fill:none;stroke:#000000;stroke-linecap:square;stroke-linejoin:miter;stroke-width:0.8;"/>
   </g>
   <g id="patch_5">
    <path d="M 38.18 246.88 
L 413.25 246.88 
" style="fill:none;stroke:#000000;stroke-linecap:square;stroke-linejoin:miter;stroke-width:0.8;"/>
   </g>
   <g id="patch_6">
    <path d="M 38.18 25.92 
L 413.25 25.92 
" style="fill:none;stroke:#000000;stroke-linecap:square;stroke-linejoin:miter;stroke-width:0.8;"/>
   </g>
   <g id="text_18">
    <!-- Stochastic decay of the solitary wave -->
    <g transform="translate(113.463438 19.92)scale(0.12 -0.12)">
     <defs>
      <path d="M 3425 4513 
L 3425 3897 
Q 3066 4069 2747 4153 
Q 2428 4238 2131 4238 
Q 1616 4238 1336 4038 
Q 1056 3838 1056 3469 
Q 1056 3159 1242 3001 
Q 1428 2844 1947 2747 
L 2328 2669 
Q 3034 2534 3370 2195 
Q 3706 1856 3706 1288 
Q 3706 609 3251 259 
Q 2797 -91 1919 -91 
Q 1588 -91 1214 -16 
Q 841 59 441 206 
L 441 856 
Q 825 641 1194 531 
Q 1563 422 1919 422 
Q 2459 422 2753 634 
Q 3047 847 3047 1241 
Q 3047 1584 2836 1778 
Q 2625 1972 2144 2069 
L 1759 2144 
Q 1053 2284 737 2584 
Q 422 2884 422 3419 
Q 422 4038 858 4394 
Q 1294 4750 2059 4750 
Q 2388 4750 2728 4690 
Q 3069 4631 3425 4513 
z
" id="DejaVuSans-53" transform="scale(0.015625)"/>
      <path d="M 1959 3097 
Q 1497 3097 1228 2736 
Q 959 2375 959 1747 
Q 959 1119 1226 758 
Q 1494 397 1959 397 
Q 2419 397 2687 759 
Q 2956 1122 2956 1747 
Q 2956 2369 2687 2733 
Q 2419 3097 1959 3097 
z
M 1959 3584 
Q 2709 3584 3137 3096 
Q 3566 2609 3566 1747 
Q 3566 888 3137 398 
Q 2709 -91 1959 -91 
Q 1206 -91 779 398 
Q 353 888 353 1747 
Q 353 2609 779 3096 
Q 1206 3584 1959 3584 
z
" id="DejaVuSans-6f" transform="scale(0.015625)"/>
      <path d="M 3122 3366 
L 3122 2828 
Q 2878 2963 2633 3030 
Q 2388 3097 2138 3097 
Q 1578 3097 1268 2742 
Q 959 2388 959 1747 
Q 959 1106 1268 751 
Q 1578 397 2138 397 
Q 2388 397 2633 464 
Q 2878 531 3122 666 
L 3122 134 
Q 2881 22 2623 -34 
Q 2366 -91 2075 -91 
Q 1284 -91 818 406 
Q 353 903 353 1747 
Q 353 2603 823 3093 
Q 1294 3584 2113 3584 
Q 2378 3584 2631 3529 
Q 2884 3475 3122 3366 
z
" id="DejaVuSans-63" transform="scale(0.015625)"/>
      <path d="M 2834 3397 
L 2834 2853 
Q 2591 2978 2328 3040 
Q 2066 3103 1784 3103 
Q 1356 3103 1142 2972 
Q 928 2841 928 2578 
Q 928 2378 1081 2264 
Q 1234 2150 1697 2047 
L 1894 2003 
Q 2506 1872 2764 1633 
Q 3022 1394 3022 966 
Q 3022 478 2636 193 
Q 2250 -91 1575 -91 
Q 1294 -91 989 -36 
Q 684 19 347 128 
L 347 722 
Q 666 556 975 473 
Q 1284 391 1588 391 
Q 1994 391 2212 530 
Q 2431 669 2431 922 
Q 2431 1156 2273 1281 
Q 2116 1406 1581 1522 
L 1381 1569 
Q 847 1681 609 1914 
Q 372 2147 372 2553 
Q 372 3047 722 3315 
Q 1072 3584 1716 3584 
Q 2034 3584 2315 3537 
Q 2597 3491 2834 3397 
z
" id="DejaVuSans-73" transform="scale(0.015625)"/>
      <path d="M 2906 2969 
L 2906 4863 
L 3481 4863 
L 3481 0 
L 2906 0 
L 2906 525 
Q 2725 213 2448 61 
Q 2172 -91 1784 -91 
Q 1150 -91 751 415 
Q 353 922 353 1747 
Q 353 2572 751 3078 
Q 1150 3584 1784 3584 
Q 2172 3584 2448 3432 
Q 2725 3281 2906 2969 
z
M 947 1747 
Q 947 1113 1208 752 
Q 1469 391 1925 391 
Q 2381 391 2643 752 
Q 2906 1113 2906 1747 
Q 2906 2381 2643 2742 
Q 2381 3103 1925 3103 
Q 1469 3103 1208 2742 
Q 947 2381 947 1747 
z
" id="DejaVuSans-64" transform="scale(0.015625)"/>
      <path d="M 2059 -325 
Q 1816 -950 1584 -1140 
Q 1353 -1331 966 -1331 
L 506 -1331 
L 506 -850 
L 844 -850 
Q 1081 -850 1212 -737 
Q 1344 -625 1503 -206 
L 1606 56 
L 191 3500 
L 800 3500 
L 1894 763 
L 2988 3500 
L 3597 3500 
L 2059 -325 
z
" id="DejaVuSans-79" transform="scale(0.015625)"/>
      <path d="M 2631 2963 
Q 2534 3019 2420 3045 
Q 2306 3072 2169 3072 
Q 1681 3072 1420 2755 
Q 1159 2438 1159 1844 
L 1159 0 
L 581 0 
L 581 3500 
L 1159 3500 
L 1159 2956 
Q 1341 3275 1631 3429 
Q 1922 3584 2338 3584 
Q 2397 3584 2469 3576 
Q 2541 3569 2628 3553 
L 2631 2963 
z
" id="DejaVuSans-72" transform="scale(0.015625)"/>
      <path d="M 269 3500 
L 844 3500 
L 1563 769 
L 2278 3500 
L 2956 3500 
L 3675 769 
L 4391 3500 
L 4966 3500 
L 4050 0 
L 3372 0 
L 2619 2869 
L 1863 0 
L 1184 0 
L 269 3500 
z
" id="DejaVuSans-77" transform="scale(0.015625)"/>
      <path d="M 191 3500 
L 800 3500 
L 1894 563 
L 2988 3500 
L 3597 3500 
L 2284 0 
L 1503 0 
L 191 3500 
z
" id="DejaVuSans-76" transform="scale(0.015625)"/>
     </defs>
     <use xlink:href="#DejaVuSans-53"/>
     <use x="63.476562" xlink:href="#DejaVuSans-74"/>
     <use x="102.685547" xlink:href="#DejaVuSans-6f"/>
     <use x="163.867188" xlink:href="#DejaVuSans-63"/>
     <use x="218.847656" xlink:href="#DejaVuSans-68"/>
     <use x="282.226562" xlink:href="#DejaVuSans-61"/>
     <use x="343.505859" xlink:href="#DejaVuSans-73"/>
     <use x="395.605469" xlink:href="#DejaVuSans-74"/>
     <use x="434.814453" xlink:href="#DejaVuSans-69"/>
     <use x="462.597656" xlink:href="#DejaVuSans-63"/>
     <use x="517.578125" xlink:href="#DejaVuSans-20"/>
     <use x="549.365234" xlink:href="#DejaVuSans-64"/>
     <use x="612.841797" xlink:href="#DejaVuSans-65"/>
     <use x="674.365234" xlink:href="#DejaVuSans-63"/>
     <use x="729.345703" xlink:href="#DejaVuSans-61"/>
     <use x="790.625" xlink:href="#DejaVuSans-79"/>
     <use x="849.804688" xlink:href="#DejaVuSans-20"/>
     <use x="881.591797" xlink:href="#DejaVuSans-6f"/>
     <use x="942.773438" xlink:href="#DejaVuSans-66"/>
     <use x="977.978516" xlink:href="#DejaVuSans-20"/>
     <use x="1009.765625" xlink:href="#DejaVuSans-74"/>
     <use x="1048.974609" xlink:href="#DejaVuSans-68"/>
     <use x="1112.353516" xlink:href="#DejaVuSans-65"/>
     <use x="1173.876953" xlink:href="#DejaVuSans-20"/>
     <use x="1205.664062" xlink:href="#DejaVuSans-73"/>
     <use x="1257.763672" xlink:href="#DejaVuSans-6f"/>
     <use x="1318.945312" xlink:href="#DejaVuSans-6c"/>
     <use x="1346.728516" xlink:href="#DejaVuSans-69"/>
     <use x="1374.511719" xlink:href="#DejaVuSans-74"/>
     <use x="1413.720703" xlink:href="#DejaVuSans-61"/>
     <use x="1475" xlink:href="#DejaVuSans-72"/>
     <use x="1516.113281" xlink:href="#DejaVuSans-79"/>
     <use x="1575.292969" xlink:href="#DejaVuSans-20"/>
     <use x="1607.080078" xlink:href="#DejaVuSans-77"/>
     <use x="1688.867188" xlink:href="#DejaVuSans-61"/>
     <use x="1750.146484" xlink:href="#DejaVuSans-76"/>
     <use x="1809.326172" xlink:href="#DejaVuSans-65"/>
    </g>
   </g>
   <g id="legend_1">
    <g id="patch_7">
     <path d="M 45.18 241.88 
L 105.808125 241.88 
Q 107.808125 241.88 107.808125 239.88 
L 107.808125 94.09875 
Q 107.808125 92.09875 105.808125 92.09875 
L 45.18 92.09875 
Q 43.18 92.09875 43.18 94.09875 
L 43.18 239.88 
Q 43.18 241.88 45.18 241.88 
z
" style="fill:#ffffff;opacity:0.8;stroke:#cccccc;stroke-linejoin:miter;"/>
    </g>
    <g id="line2d_42">
     <path d="M 47.18 100.197188 
L 67.18 100.197188 
" style="fill:none;stroke:#8000ff;stroke-linecap:square;stroke-width:1.5;"/>
    </g>
    <g id="line2d_43"/>
    <g id="text_19">
     <!-- 0.01 -->
     <g transform="translate(75.18 103.697188)scale(0.1 -0.1)">
      <use xlink:href="#DejaVuSans-30"/>
      <use x="63.623047" xlink:href="#DejaVuSans-2e"/>
      <use x="95.410156" xlink:href="#DejaVuSans-30"/>
      <use x="159.033203" xlink:href="#DejaVuSans-31"/>
     </g>
    </g>
    <g id="line2d_44">
     <path d="M 47.18 114.875313 
L 67.18 114.875313 
" style="fill:none;stroke:#4856fb;stroke-linecap:square;stroke-width:1.5;"/>
    </g>
    <g id="line2d_45"/>
    <g id="text_20">
     <!-- 0.025 -->
     <g transform="translate(75.18 118.375313)scale(0.1 -0.1)">
      <use xlink:href="#DejaVuSans-30"/>
      <use x="63.623047" xlink:href="#DejaVuSans-2e"/>
      <use x="95.410156" xlink:href="#DejaVuSans-30"/>
      <use x="159.033203" xlink:href="#DejaVuSans-32"/>
      <use x="222.65625" xlink:href="#DejaVuSans-35"/>
     </g>
    </g>
    <g id="line2d_46">
     <path d="M 47.18 129.553438 
L 67.18 129.553438 
" style="fill:none;stroke:#10a2f0;stroke-linecap:square;stroke-width:1.5;"/>
    </g>
    <g id="line2d_47"/>
    <g id="text_21">
     <!-- 0.075 -->
     <g transform="translate(75.18 133.053438)scale(0.1 -0.1)">
      <use xlink:href="#DejaVuSans-30"/>
      <use x="63.623047" xlink:href="#DejaVuSans-2e"/>
      <use x="95.410156" xlink:href="#DejaVuSans-30"/>
      <use x="159.033203" xlink:href="#DejaVuSans-37"/>
      <use x="222.65625" xlink:href="#DejaVuSans-35"/>
     </g>
    </g>
    <g id="line2d_48">
     <path d="M 47.18 144.231563 
L 67.18 144.231563 
" style="fill:none;stroke:#2adddd;stroke-linecap:square;stroke-width:1.5;"/>
    </g>
    <g id="line2d_49"/>
    <g id="text_22">
     <!-- 0.05 -->
     <g transform="translate(75.18 147.731563)scale(0.1 -0.1)">
      <use xlink:href="#DejaVuSans-30"/>
      <use x="63.623047" xlink:href="#DejaVuSans-2e"/>
      <use x="95.410156" xlink:href="#DejaVuSans-30"/>
      <use x="159.033203" xlink:href="#DejaVuSans-35"/>
     </g>
    </g>
    <g id="line2d_50">
     <path d="M 47.18 158.909688 
L 67.18 158.909688 
" style="fill:none;stroke:#62fbc4;stroke-linecap:square;stroke-width:1.5;"/>
    </g>
    <g id="line2d_51"/>
    <g id="text_23">
     <!-- 0.1 -->
     <g transform="translate(75.18 162.409688)scale(0.1 -0.1)">
      <use xlink:href="#DejaVuSans-30"/>
      <use x="63.623047" xlink:href="#DejaVuSans-2e"/>
      <use x="95.410156" xlink:href="#DejaVuSans-31"/>
     </g>
    </g>
    <g id="line2d_52">
     <path d="M 47.18 173.587813 
L 67.18 173.587813 
" style="fill:none;stroke:#9cfba4;stroke-linecap:square;stroke-width:1.5;"/>
    </g>
    <g id="line2d_53"/>
    <g id="text_24">
     <!-- 0.25 -->
     <g transform="translate(75.18 177.087813)scale(0.1 -0.1)">
      <use xlink:href="#DejaVuSans-30"/>
      <use x="63.623047" xlink:href="#DejaVuSans-2e"/>
      <use x="95.410156" xlink:href="#DejaVuSans-32"/>
      <use x="159.033203" xlink:href="#DejaVuSans-35"/>
     </g>
    </g>
    <g id="line2d_54">
     <path d="M 47.18 188.265938 
L 67.18 188.265938 
" style="fill:none;stroke:#d4dd80;stroke-linecap:square;stroke-width:1.5;"/>
    </g>
    <g id="line2d_55"/>
    <g id="text_25">
     <!-- 0.5 -->
     <g transform="translate(75.18 191.765938)scale(0.1 -0.1)">
      <use xlink:href="#DejaVuSans-30"/>
      <use x="63.623047" xlink:href="#DejaVuSans-2e"/>
      <use x="95.410156" xlink:href="#DejaVuSans-35"/>
     </g>
    </g>
    <g id="line2d_56">
     <path d="M 47.18 202.944063 
L 67.18 202.944063 
" style="fill:none;stroke:#ffa256;stroke-linecap:square;stroke-width:1.5;"/>
    </g>
    <g id="line2d_57"/>
    <g id="text_26">
     <!-- 1.0 -->
     <g transform="translate(75.18 206.444063)scale(0.1 -0.1)">
      <use xlink:href="#DejaVuSans-31"/>
      <use x="63.623047" xlink:href="#DejaVuSans-2e"/>
      <use x="95.410156" xlink:href="#DejaVuSans-30"/>
     </g>
    </g>
    <g id="line2d_58">
     <path d="M 47.18 217.622187 
L 67.18 217.622187 
" style="fill:none;stroke:#ff562c;stroke-linecap:square;stroke-width:1.5;"/>
    </g>
    <g id="line2d_59"/>
    <g id="text_27">
     <!-- 1.5 -->
     <g transform="translate(75.18 221.122187)scale(0.1 -0.1)">
      <use xlink:href="#DejaVuSans-31"/>
      <use x="63.623047" xlink:href="#DejaVuSans-2e"/>
      <use x="95.410156" xlink:href="#DejaVuSans-35"/>
     </g>
    </g>
    <g id="line2d_60">
     <path d="M 47.18 232.300312 
L 67.18 232.300312 
" style="fill:none;stroke:#ff0000;stroke-linecap:square;stroke-width:1.5;"/>
    </g>
    <g id="line2d_61"/>
    <g id="text_28">
     <!-- 2.0 -->
     <g transform="translate(75.18 235.800312)scale(0.1 -0.1)">
      <use xlink:href="#DejaVuSans-32"/>
      <use x="63.623047" xlink:href="#DejaVuSans-2e"/>
      <use x="95.410156" xlink:href="#DejaVuSans-30"/>
     </g>
    </g>
   </g>
  </g>
 </g>
 <defs>
  <clipPath id="pa6da97c117">
   <rect height="220.96" width="375.07" x="38.18" y="25.92"/>
  </clipPath>
 </defs>
</svg>
